Patient4_TMGait_0pt7_02_right_34_GRF.mot
version=1
nRows=65
nColumns=19
inDegrees=no
endheader
time	F1x	F1y	F1z	M1x	M1y	M1z	F2x	F2y	F2z	M2x	M2y	M2z	EC1x	EC1y	EC1z	EC2x	EC2y	EC2z
38.3	74.7811	749.9755	27.1751	-246.5135	-27.041	845.8412	-49.0261	1.2434	-2.1366	2.2485	9.2819	23.5229	-0.0592	0.0182	-0.0073	-0.0462	0.0165	0.9585
38.3119	55.5685	754.1948	38.7343	-248.5254	-38.8911	840.4721	-32.3632	1.8547	-1.4656	1.9389	6.1795	16.8058	-0.0592	0.0182	-0.0073	-0.0462	0.0165	0.9585
38.3237	39.9392	758.17	48.5419	-250.3644	-48.5764	835.0588	-18.5716	2.5546	-0.87511	1.7259	3.6116	11.4748	-0.0592	0.0182	-0.0073	-0.0462	0.0165	0.9585
38.3356	28.6678	761.396	56.1473	-251.7963	-55.6802	829.6085	-8.2609	3.2081	-0.41559	1.6005	1.6955	7.6496	-0.0592	0.0182	-0.0073	-0.0462	0.0165	0.9585
38.3474	21.5022	763.4398	61.4749	-252.6617	-60.2248	823.8469	-1.2769	3.7858	-0.092718	1.5537	0.40367	5.2222	-0.0592	0.0182	-0.0073	-0.0462	0.0165	0.9585
38.3593	17.6229	764.0159	64.89	-252.8645	-62.695	817.5621	2.9159	4.2284	0.10657	1.555	-0.36137	3.8701	-0.0592	0.0182	-0.0073	-0.0462	0.0165	0.9585
38.3711	16.1335	762.9873	66.728	-252.3792	-63.5272	810.5037	5.0252	4.5116	0.20518	1.5741	-0.72915	3.255	-0.0592	0.0182	-0.0073	-0.0462	0.0165	0.9585
38.383	16.1602	760.3337	67.4435	-251.2193	-63.2494	802.5381	5.6912	4.6026	0.23019	1.5748	-0.82096	3.0502	-0.0592	0.0182	-0.0073	-0.0462	0.0165	0.9585
38.3949	17.1281	756.174	67.3496	-249.4478	-62.191	793.6171	5.497	4.4294	0.20746	1.5102	-0.74861	2.8979	-0.0592	0.0182	-0.0073	-0.0462	0.0165	0.9585
38.4067	18.608	750.7221	66.7648	-247.1525	-60.6677	783.8025	4.8276	3.9359	0.16086	1.337	-0.58961	2.5481	-0.0592	0.0182	-0.0073	-0.0462	0.0165	0.9585
38.4186	20.3923	744.2799	65.9221	-244.4501	-58.8842	773.2432	4.0283	2.996	0.095484	0.99736	-0.4056	1.6964	-0.0592	0.0182	-0.0073	-0.0462	0.0165	0.9585
38.4304	22.4275	737.2731	65.0148	-241.4881	-56.9902	762.2628	3.2475	1.535	0.034589	0.44712	-0.23717	0.1974	-0.0592	0.0182	-0.0073	-0.0462	0.0165	0.9585
38.4423	24.7107	730.1672	64.2221	-238.425	-55.1239	751.2298	2.6609	-0.55984	-0.017928	-0.35958	-0.12468	-2.1622	-0.0592	0.0182	-0.0073	-0.0462	0.0165	0.9585
38.4541	27.3113	723.4589	63.661	-235.424	-53.3605	740.5787	2.2804	-3.2366	-0.035483	-1.4151	-0.09902	-5.3098	-0.0592	0.0182	-0.0073	-0.0462	0.0165	0.9585
38.466	30.3058	717.6049	63.483	-232.6302	-51.8177	730.7401	2.1978	-6.385	-0.013876	-2.6667	-0.20182	-9.1275	-0.0592	0.0182	-0.0073	-0.0462	0.0165	0.9585
38.4779	33.7355	712.9465	63.7505	-230.1536	-50.546	722.0144	2.3615	-9.527	0.06725	-3.9291	-0.45407	-12.9663	-0.0592	0.0182	-0.0073	-0.0462	0.0165	0.9585
38.4897	37.6008	709.7046	64.555	-228.0667	-49.6403	714.6237	2.8543	-11.9483	0.21454	-4.8977	-0.89161	-15.9613	-0.0592	0.0182	-0.0073	-0.0462	0.0165	0.9585
38.5016	41.915	707.9325	65.8616	-226.4045	-49.0719	708.6131	3.5878	-12.3376	0.44204	-5.0449	-1.509	-16.4448	-0.0592	0.0182	-0.0073	-0.0462	0.0165	0.9585
38.5134	46.6012	707.4898	67.6113	-225.1508	-48.8122	703.8447	4.6061	-8.9258	0.7435	-3.6388	-2.2987	-12.2404	-0.0592	0.0182	-0.0073	-0.0462	0.0165	0.9585
38.5253	51.6182	708.0144	69.6015	-224.2279	-48.6891	699.968	5.7148	0.71453	1.1035	0.30425	-3.1732	-0.26442	-0.0592	0.0182	-0.0073	-0.0462	0.0165	0.9585
38.5371	56.8386	708.8129	71.591	-223.4575	-48.5169	696.3594	6.8077	19.3606	1.4698	7.9206	-3.9958	22.9338	-0.0592	0.0182	-0.0073	-0.0462	0.0165	0.9585
38.549	62.092	708.822	73.2731	-222.5441	-48.0647	692.0321	7.4506	49.9333	1.7641	20.3842	-4.4846	61.0656	-0.0592	0.0182	-0.0073	-0.0462	0.0165	0.9585
38.5609	67.1327	706.5581	74.325	-221.0575	-47.1099	685.6348	7.2143	94.613	1.8414	38.577	-4.2426	116.8522	-0.0592	0.0182	-0.0073	-0.0462	0.0165	0.9585
38.5727	71.6565	700.1685	74.4433	-218.4472	-45.4726	675.4948	5.294	153.8978	1.5102	62.6692	-2.697	190.9938	-0.0592	0.0182	-0.0073	-0.0462	0.0165	0.9585
38.5846	75.2587	687.5279	73.3424	-214.0714	-43.0182	659.6957	0.85076	224.7392	0.50542	91.3994	0.84164	279.7099	-0.0592	0.0182	-0.0073	-0.0462	0.0165	0.9585
38.5964	77.5238	666.5464	70.8258	-207.2859	-39.708	636.3982	-7.0409	298.9645	-1.5127	121.405	7.098	372.893	-0.0592	0.0182	-0.0073	-0.0462	0.0165	0.9585
38.6083	78.0405	635.6128	66.8056	-197.5865	-35.6111	604.1851	-17.7155	364.2603	-5.3068	147.7184	16.5453	455.1141	-0.0592	0.0182	-0.0073	-0.0462	0.0165	0.9585
38.6201	76.5341	594.2375	61.4523	-184.7887	-31.0054	562.6838	-29.4844	414.4079	-11.2705	167.7815	28.774	518.4414	-0.0592	0.0182	-0.0073	-0.0462	0.0165	0.9585
38.632	72.9414	543.384	55.1134	-169.1279	-26.2396	512.855	-41.162	452.2143	-17.9596	182.6853	41.8081	566.1462	-0.0592	0.0182	-0.0073	-0.0462	0.0165	0.9585
38.6439	67.5139	484.8581	48.3757	-151.097	-21.7704	456.3823	-51.3262	482.9589	-25.2933	194.569	54.87	604.6648	-0.0592	0.0182	-0.0073	-0.0462	0.0165	0.9585
38.6557	60.5559	421.1857	41.5999	-131.4253	-17.81	395.5976	-59.2942	511.4528	-31.8589	205.443	66.1623	639.8783	-0.0592	0.0182	-0.0073	-0.0462	0.0165	0.9585
38.6676	52.4294	355.265	35.0062	-110.9868	-14.4399	333.1545	-64.7353	540.1195	-37.6311	216.3248	75.4113	674.7904	-0.0592	0.0182	-0.0073	-0.0462	0.0165	0.9585
38.6794	43.4729	290.2486	28.7346	-90.755	-11.6674	271.9409	-67.6845	569.7412	-42.1307	227.563	82.1477	710.3324	-0.0592	0.0182	-0.0073	-0.0462	0.0165	0.9585
38.6913	34.2211	229.1798	22.8795	-71.6901	-9.4013	214.6954	-68.367	600.1058	-46.0249	239.0402	87.1901	746.304	-0.0592	0.0182	-0.0073	-0.0462	0.0165	0.9585
38.7031	25.279	174.5794	17.6281	-54.5945	-7.6022	163.6951	-67.1407	630.4367	-49.6432	250.4162	91.1165	781.786	-0.0592	0.0182	-0.0073	-0.0462	0.0165	0.9585
38.715	17.2934	127.9984	13.0499	-39.9829	-6.1103	120.235	-64.651	659.3694	-53.4285	261.1184	94.6836	815.23	-0.0592	0.0182	-0.0073	-0.0462	0.0165	0.9585
38.7269	10.6459	89.9437	9.282	-28.0342	-4.911	84.7337	-61.618	685.4445	-57.4664	270.5795	98.2697	844.9616	-0.0592	0.0182	-0.0073	-0.0462	0.0165	0.9585
38.7387	5.4991	60.0432	6.2497	-18.6553	-3.8758	56.7947	-58.6102	707.8922	-61.5499	278.5176	101.8612	870.1123	-0.0592	0.0182	-0.0073	-0.0462	0.0165	0.9585
38.7506	1.723	37.454	3.9741	-11.5822	-3.0604	35.6666	-55.9052	726.5734	-65.501	284.9326	105.3357	890.5055	-0.0592	0.0182	-0.0073	-0.0462	0.0165	0.9585
38.7624	-0.77086	21.098	2.2602	-6.4803	-2.3243	20.3295	-53.6188	741.7578	-68.9798	289.9842	108.3485	906.428	-0.0592	0.0182	-0.0073	-0.0462	0.0165	0.9585
38.7743	-2.1427	9.8528	1.0596	-2.9868	-1.6873	9.7849	-51.6615	753.7358	-71.9451	293.8339	110.7866	918.1753	-0.0592	0.0182	-0.0073	-0.0462	0.0165	0.9585
38.7861	-2.5449	2.6818	0.21497	-0.7751	-1.0623	3.0281	-50.0376	762.6958	-74.1924	296.5931	112.4346	925.9586	-0.0592	0.0182	-0.0073	-0.0462	0.0165	0.9585
38.798	-2.3546	-1.35	-0.29149	0.45444	-0.55123	-0.7817	-48.6479	768.66	-75.9127	298.2879	113.4518	929.7787	-0.0592	0.0182	-0.0073	-0.0462	0.0165	0.9585
38.8099	-1.8383	-3.1291	-0.55011	0.97931	-0.15753	-2.4812	-47.5	771.7327	-77.0439	298.9664	113.803	929.7762	-0.0592	0.0182	-0.0073	-0.0462	0.0165	0.9585
38.8217	-1.2497	-3.436	-0.63584	1.0496	0.11188	-2.7698	-46.5227	772.0872	-77.8117	298.7004	113.7097	926.1708	-0.0592	0.0182	-0.0073	-0.0462	0.0165	0.9585
38.8336	-0.66745	-2.8992	-0.61593	0.86359	0.29166	-2.2531	-45.6736	770.3024	-78.1629	297.7032	113.1376	919.6771	-0.0592	0.0182	-0.0073	-0.0462	0.0165	0.9585
38.8454	-0.19343	-1.956	-0.56247	0.5588	0.41655	-1.3313	-44.8485	767.0225	-78.2527	296.2213	112.2257	911.0419	-0.0592	0.0182	-0.0073	-0.0462	0.0165	0.9585
38.8573	0.16935	-0.91149	-0.47761	0.22709	0.48048	-0.31423	-44.0053	763.0851	-77.9898	294.5651	110.8881	901.2734	-0.0592	0.0182	-0.0073	-0.0462	0.0165	0.9585
38.8691	0.41142	0.057888	-0.41407	-0.079901	0.52453	0.65575	-43.0065	759.1563	-77.41	292.9831	109.1265	891.1437	-0.0592	0.0182	-0.0073	-0.0462	0.0165	0.9585
38.881	0.56107	0.88137	-0.34295	-0.33973	0.52276	1.4971	-41.8533	755.7338	-76.4341	291.6577	106.8614	881.2739	-0.0592	0.0182	-0.0073	-0.0462	0.0165	0.9585
38.8929	0.61742	1.5383	-0.30527	-0.54421	0.50903	2.189	-40.4	753.0585	-75.0935	290.6722	104.0865	871.931	-0.0592	0.0182	-0.0073	-0.0462	0.0165	0.9585
38.9047	0.62681	2.0406	-0.26652	-0.69383	0.46645	2.7317	-38.6433	751.2038	-73.3989	290.0413	100.8073	863.2373	-0.0592	0.0182	-0.0073	-0.0462	0.0165	0.9585
38.9166	0.59428	2.4026	-0.24645	-0.79674	0.42024	3.1279	-36.472	750.0814	-71.3506	289.7202	97.0031	855.0775	-0.0592	0.0182	-0.0073	-0.0462	0.0165	0.9585
38.9284	0.54073	2.6193	-0.21966	-0.85479	0.35715	3.3629	-33.8712	749.5574	-68.9888	289.6343	92.7104	847.3481	-0.0592	0.0182	-0.0073	-0.0462	0.0165	0.9585
38.9403	0.47989	2.6923	-0.18785	-0.86964	0.28484	3.4282	-30.7439	749.3337	-66.3044	289.6543	87.9078	839.7338	-0.0592	0.0182	-0.0073	-0.0462	0.0165	0.9585
38.9521	0.39807	2.5811	-0.13641	-0.82914	0.18704	3.2706	-27.107	749.0466	-63.4173	289.6099	82.7266	831.9109	-0.0592	0.0182	-0.0073	-0.0462	0.0165	0.9585
38.964	0.31422	2.2243	-0.061905	-0.71246	0.062435	2.8069	-22.9363	748.1214	-60.4289	289.2561	77.2792	823.2996	-0.0592	0.0182	-0.0073	-0.0462	0.0165	0.9585
38.9759	0.22641	1.5646	0.02335	-0.49533	-0.078649	1.9759	-18.305	745.9478	-57.5748	288.325	71.8321	813.3449	-0.0592	0.0182	-0.0073	-0.0462	0.0165	0.9585
38.9877	0.14578	0.4991	0.1243	-0.14091	-0.23657	0.63831	-13.2175	742.0339	-55.0245	286.6066	66.5692	801.5713	-0.0592	0.0182	-0.0073	-0.0462	0.0165	0.9585
38.9996	0.056834	-1.0341	0.21552	0.37408	-0.3853	-1.264	-7.753	736.2289	-52.9978	284.0254	61.7417	787.9115	-0.0592	0.0182	-0.0073	-0.0462	0.0165	0.9585
39.0114	0.0088366	-3.0764	0.30051	1.0621	-0.51343	-3.7885	-1.9453	728.7912	-51.5876	280.6896	57.4589	772.6807	-0.0592	0.0182	-0.0073	-0.0462	0.0165	0.9585
39.0233	-0.019204	-5.5441	0.33993	1.8955	-0.57868	-6.8127	4.1237	720.5135	-50.8685	276.9119	53.8193	756.7735	-0.0592	0.0182	-0.0073	-0.0462	0.0165	0.9585
39.0351	0.052516	-8.2038	0.30931	2.7919	-0.52184	-10.0672	10.3473	712.3935	-50.8145	273.108	50.8303	741.2447	-0.0592	0.0182	-0.0073	-0.0462	0.0165	0.9585
39.047	0.23409	-10.5251	0.13961	3.5682	-0.24991	-12.8829	16.5565	705.5362	-51.3783	269.7315	48.5006	727.2661	-0.0592	0.0182	-0.0073	-0.0462	0.0165	0.9585
39.0589	0.63019	-11.6558	-0.23434	3.9228	0.34609	-14.2443	22.5787	700.834	-52.469	267.1632	46.7966	715.7554	-0.0592	0.0182	-0.0073	-0.0462	0.0165	0.9585
